<?xml version="1.0" standalone="no"?><!DOCTYPE svg PUBLIC "-//W3C//DTD SVG 1.1//EN" "http://www.w3.org/Graphics/SVG/1.1/DTD/svg11.dtd"><svg t="1698312411128" class="icon" viewBox="0 0 1024 1024" version="1.1" xmlns="http://www.w3.org/2000/svg" p-id="10700" xmlns:xlink="http://www.w3.org/1999/xlink" width="200" height="200"><path d="M419.84 156.8256h184.832a45.1584 45.1584 0 1 0 0-90.2656H419.84a45.1584 45.1584 0 1 0 0 90.2656z m0 0" p-id="10701" fill="#bfbfbf"></path><path d="M838.8096 98.56h-109.824a79.104 79.104 0 0 1 1.1776 13.1584 71.68 71.68 0 0 1-71.68 71.68H365.4144a71.68 71.68 0 0 1-71.68-71.68 79.104 79.104 0 0 1 1.1776-13.1584H185.1904a86.016 86.016 0 0 0-85.9648 86.016v686.8992A85.9648 85.9648 0 0 0 185.1904 957.44h653.6192a85.9136 85.9136 0 0 0 85.9648-85.9648V184.576a85.9648 85.9648 0 0 0-85.9648-86.016zM403.3024 611.1232a10.7008 10.7008 0 0 1-7.5776-6.5024l-26.8288-69.1712a10.24 10.24 0 0 1 2.304-11.1616l32.6656-32.768a10.24 10.24 0 0 0 0-14.7968L244.224 317.44a10.24 10.24 0 0 1 0-14.7968l26.7776-26.7264a10.24 10.24 0 0 1 14.7968 0L445.44 435.2a10.24 10.24 0 0 0 14.7968 0l33.536-33.536a10.496 10.496 0 0 1 11.264-2.0992l67.9424 28.2112a10.24 10.24 0 0 1 3.3792 16.9984l-163.328 163.328a10.24 10.24 0 0 1-9.728 3.0208z m379.392-87.3472c-12.3904 62.7712-54.5792 122.88-111.0016 179.2s-116.5312 98.6624-179.2 110.848a10.24 10.24 0 0 1-11.776-5.9904l-54.8864-128.768a10.24 10.24 0 0 1 2.1504-11.4688l208.0768-208.0768a10.5472 10.5472 0 0 1 11.4688-2.1504l128.8704 54.9376a10.5472 10.5472 0 0 1 6.2976 11.4688z" p-id="10702" fill="#bfbfbf"></path></svg>